<?xml version="1.0" encoding="UTF-8"?>
<svg width="81px" height="81px" viewBox="0 0 81 81" version="1.1" xmlns="http://www.w3.org/2000/svg" xmlns:xlink="http://www.w3.org/1999/xlink">
    <!-- Generator: Sketch 52.5 (67469) - http://www.bohemiancoding.com/sketch -->
    <title>icon</title>
    <desc>Created with Sketch.</desc>
    <g id="My-Account---Logitech" stroke="none" stroke-width="1" fill="none" fill-rule="evenodd">
        <g id="Phase-2---Landing-(Authenticated)" transform="translate(-488.000000, -1117.000000)" stroke="#C3C6C8">
            <g id="4" transform="translate(401.000000, 1117.000000)">
                <g id="icon" transform="translate(87.000000, 0.000000)">
                    <g id="Group-2" stroke-width="2.4">
                        <circle id="Path" cx="40.5" cy="40.5" r="39.3"></circle>
                    </g>
                    <g id="question" transform="translate(33.000000, 27.000000)" fill="#C3C6C8" stroke-width="0.3">
                        <path d="M2.36625,6.14 L0.20625,5.5 C1.00625,2.38 4.12625,0.1 8.00625,0.1 C12.60625,0.1 16.00625,3.34 16.00625,7.3 C16.00625,10.58 14.00625,12.54 12.08625,13.94 C10.08625,15.42 7.92625,16.3 7.92625,17.58 C7.92625,18.26 8.64625,19.1 9.28625,19.7 L7.60625,21.3 C6.20625,19.9 5.64625,18.98 5.64625,17.58 C5.64625,14.86 8.60625,13.86 10.88625,12.14 C12.36625,11.02 13.72625,9.5 13.72625,7.3 C13.72625,4.5 11.36625,2.26 8.00625,2.26 C5.12625,2.26 2.88625,3.9 2.36625,6.14 Z M5.72625,26.82 C5.72625,25.66 6.64625,24.74 7.80625,24.74 C8.96625,24.74 9.88625,25.66 9.88625,26.82 C9.88625,27.98 8.96625,28.9 7.80625,28.9 C6.64625,28.9 5.72625,27.98 5.72625,26.82 Z" id="?"></path>
                    </g>
                </g>
            </g>
        </g>
    </g>
</svg>